<svg width="32" height="32" viewBox="0 0 32 32" fill="none" xmlns="http://www.w3.org/2000/svg">
<path d="M0 16C0 7.16344 7.16344 0 16 0C24.8366 0 32 7.16344 32 16C32 24.8366 24.8366 32 16 32C7.16344 32 0 24.8366 0 16Z" fill="#5EEAD4"/>
<path d="M16 9.33333C12.32 9.33333 9.33331 12.32 9.33331 16C9.33331 19.68 12.32 22.6667 16 22.6667C19.68 22.6667 22.6666 19.68 22.6666 16C22.6666 12.32 19.68 9.33333 16 9.33333ZM15.2866 19.4333C15.2866 19.5 15.2733 19.56 15.2466 19.6267C15.1933 19.7467 15.1 19.8467 14.9733 19.9C14.9133 19.9267 14.8466 19.94 14.78 19.94C14.7133 19.94 14.6533 19.9267 14.5866 19.9C14.5266 19.8733 14.4733 19.84 14.4266 19.7933L12.4 17.7667C12.2066 17.5733 12.2066 17.2533 12.4 17.06C12.5933 16.8667 12.9133 16.8667 13.1066 17.06L14.28 18.2333V12.5667C14.28 12.2933 14.5066 12.0667 14.78 12.0667C15.0533 12.0667 15.28 12.2933 15.28 12.5667V19.4333H15.2866ZM19.5933 14.9467C19.4933 15.0467 19.3666 15.0933 19.24 15.0933C19.1133 15.0933 18.9866 15.0467 18.8866 14.9467L17.7133 13.7733V19.44C17.7133 19.7133 17.4866 19.94 17.2133 19.94C16.94 19.94 16.7133 19.7133 16.7133 19.44V12.5667C16.7133 12.5 16.7266 12.44 16.7533 12.3733C16.8066 12.2533 16.9 12.1533 17.0266 12.1C17.1466 12.0467 17.2866 12.0467 17.4066 12.1C17.4666 12.1267 17.52 12.16 17.5666 12.2067L19.5933 14.2333C19.7866 14.4333 19.7866 14.7467 19.5933 14.9467Z" fill="white"/>
</svg>
