<svg width="32" height="32" viewBox="0 0 32 32" fill="none" xmlns="http://www.w3.org/2000/svg">
<path d="M0 16C0 7.16344 7.16344 0 16 0C24.8366 0 32 7.16344 32 16C32 24.8366 24.8366 32 16 32C7.16344 32 0 24.8366 0 16Z" fill="#F59E0B"/>
<path d="M15.5 13.3867V15.2933L14.8267 15.06C14.4867 14.94 14.28 14.8267 14.28 14.2467C14.28 13.7733 14.6334 13.3867 15.0667 13.3867H15.5Z" fill="white"/>
<path d="M17.72 17.7533C17.72 18.2267 17.3667 18.6133 16.9333 18.6133H16.5V16.7067L17.1733 16.94C17.5133 17.06 17.72 17.1733 17.72 17.7533Z" fill="#55676B"/>
<path d="M18.7933 9.33333H13.2066C10.78 9.33333 9.33331 10.78 9.33331 13.2067V18.7933C9.33331 21.22 10.78 22.6667 13.2066 22.6667H18.7933C21.22 22.6667 22.6666 21.22 22.6666 18.7933V13.2067C22.6666 10.78 21.22 9.33333 18.7933 9.33333ZM17.5066 16C18.0266 16.18 18.72 16.56 18.72 17.7533C18.72 18.78 17.92 19.6133 16.9333 19.6133H16.5V20C16.5 20.2733 16.2733 20.5 16 20.5C15.7266 20.5 15.5 20.2733 15.5 20V19.6133H15.26C14.1666 19.6133 13.28 18.6867 13.28 17.5533C13.28 17.28 13.5 17.0533 13.78 17.0533C14.0533 17.0533 14.28 17.28 14.28 17.5533C14.28 18.14 14.72 18.6133 15.26 18.6133H15.5V16.3533L14.4933 16C13.9733 15.82 13.28 15.44 13.28 14.2467C13.28 13.22 14.08 12.3867 15.0666 12.3867H15.5V12C15.5 11.7267 15.7266 11.5 16 11.5C16.2733 11.5 16.5 11.7267 16.5 12V12.3867H16.74C17.8333 12.3867 18.72 13.3133 18.72 14.4467C18.72 14.72 18.5 14.9467 18.22 14.9467C17.9466 14.9467 17.72 14.72 17.72 14.4467C17.72 13.86 17.28 13.3867 16.74 13.3867H16.5V15.6467L17.5066 16Z" fill="white"/>
</svg>
