<svg width="32" height="32" viewBox="0 0 32 32" fill="none" xmlns="http://www.w3.org/2000/svg">
<path d="M0 16C0 7.16344 7.16344 0 16 0C24.8366 0 32 7.16344 32 16C32 24.8366 24.8366 32 16 32C7.16344 32 0 24.8366 0 16Z" fill="#005061"/>
<path d="M22.6666 13.0333C22.6666 13.4733 22.3066 13.8333 21.8666 13.8333H10.1333C9.69331 13.8333 9.33331 13.4733 9.33331 13.0333V13.0267C9.33331 11.5 10.5666 10.2667 12.0933 10.2667H19.9C21.4266 10.2667 22.6666 11.5067 22.6666 13.0333Z" fill="white"/>
<path d="M9.33331 15.6333V18.9733C9.33331 20.5 10.5666 21.7333 12.0933 21.7333H19.9C21.4266 21.7333 22.6666 20.4933 22.6666 18.9667V15.6333C22.6666 15.1933 22.3066 14.8333 21.8666 14.8333H10.1333C9.69331 14.8333 9.33331 15.1933 9.33331 15.6333ZM13.3333 19.5H12C11.7266 19.5 11.5 19.2733 11.5 19C11.5 18.7267 11.7266 18.5 12 18.5H13.3333C13.6066 18.5 13.8333 18.7267 13.8333 19C13.8333 19.2733 13.6066 19.5 13.3333 19.5ZM17.6666 19.5H15C14.7266 19.5 14.5 19.2733 14.5 19C14.5 18.7267 14.7266 18.5 15 18.5H17.6666C17.94 18.5 18.1666 18.7267 18.1666 19C18.1666 19.2733 17.94 19.5 17.6666 19.5Z" fill="white"/>
</svg>
