<svg width="40" height="40" viewBox="0 0 40 40" fill="none" xmlns="http://www.w3.org/2000/svg">
<rect width="40" height="40" rx="12" fill="#F9FAFB"/>
<path fill-rule="evenodd" clip-rule="evenodd" d="M22.4772 23.3158H17.6638C17.3878 23.3158 17.1638 23.0918 17.1638 22.8158C17.1638 22.5398 17.3878 22.3158 17.6638 22.3158H22.4772C22.7532 22.3158 22.9772 22.5398 22.9772 22.8158C22.9772 23.0918 22.7532 23.3158 22.4772 23.3158Z" fill="#017189"/>
<path fill-rule="evenodd" clip-rule="evenodd" d="M22.4772 20.5248H17.6638C17.3878 20.5248 17.1638 20.3008 17.1638 20.0248C17.1638 19.7488 17.3878 19.5248 17.6638 19.5248H22.4772C22.7532 19.5248 22.9772 19.7488 22.9772 20.0248C22.9772 20.3008 22.7532 20.5248 22.4772 20.5248Z" fill="#017189"/>
<path fill-rule="evenodd" clip-rule="evenodd" d="M19.5002 17.7403H17.6636C17.3876 17.7403 17.1636 17.5163 17.1636 17.2403C17.1636 16.9643 17.3876 16.7403 17.6636 16.7403H19.5002C19.7762 16.7403 20.0002 16.9643 20.0002 17.2403C20.0002 17.5163 19.7762 17.7403 19.5002 17.7403Z" fill="#017189"/>
<mask id="mask0_1059_1192" style="mask-type:alpha" maskUnits="userSpaceOnUse" x="14" y="13" width="13" height="14">
<path fill-rule="evenodd" clip-rule="evenodd" d="M14 13.3335H26.1098V26.6067H14V13.3335Z" fill="white"/>
</mask>
<g mask="url(#mask0_1059_1192)">
<path fill-rule="evenodd" clip-rule="evenodd" d="M22.6058 14.3333L17.4798 14.336C15.9278 14.3453 14.9998 15.3053 14.9998 16.9047V23.0353C14.9998 24.6453 15.9364 25.6067 17.5038 25.6067L22.6298 25.6047C24.1818 25.5953 25.1098 24.634 25.1098 23.0353V16.9047C25.1098 15.2947 24.1738 14.3333 22.6058 14.3333ZM17.5044 26.6067C15.4084 26.6067 13.9998 25.1713 13.9998 23.0353V16.9047C13.9998 14.7493 15.3644 13.3487 17.4764 13.336L22.6051 13.3333H22.6058C24.7018 13.3333 26.1098 14.7687 26.1098 16.9047V23.0353C26.1098 25.19 24.7451 26.5913 22.6331 26.6047L17.5044 26.6067Z" fill="#017189"/>
</g>
</svg>
