<svg width="40" height="40" viewBox="0 0 40 40" fill="none" xmlns="http://www.w3.org/2000/svg">
<rect width="40" height="40" rx="12" fill="#F9FAFB"/>
<path d="M18.6667 21.3333L26.0001 14" stroke="#017189" stroke-width="1.5" stroke-linecap="round" stroke-linejoin="round"/>
<path d="M25.9998 14L21.6665 26C21.6372 26.0638 21.5903 26.1179 21.5312 26.1558C21.4721 26.1938 21.4033 26.2139 21.3331 26.2139C21.2629 26.2139 21.1942 26.1938 21.1351 26.1558C21.076 26.1179 21.0291 26.0638 20.9998 26L18.6665 21.3333L13.9998 19C13.936 18.9708 13.8819 18.9238 13.844 18.8647C13.806 18.8056 13.7859 18.7369 13.7859 18.6667C13.7859 18.5965 13.806 18.5277 13.844 18.4686C13.8819 18.4095 13.936 18.3626 13.9998 18.3333L25.9998 14Z" stroke="#017189" stroke-width="1.5" stroke-linecap="round" stroke-linejoin="round"/>
</svg>
