<svg width="32" height="32" viewBox="0 0 32 32" fill="none" xmlns="http://www.w3.org/2000/svg">
<path d="M0 16C0 7.16344 7.16344 0 16 0C24.8366 0 32 7.16344 32 16C32 24.8366 24.8366 32 16 32C7.16344 32 0 24.8366 0 16Z" fill="#F43F5E"/>
<path d="M20.7134 17.4933C20.5201 17.6867 20.2134 17.6867 20.0267 17.4933C19.8334 17.3 19.8334 16.9933 20.0267 16.8067C21.3601 15.4733 21.3601 13.3067 20.0267 11.98C18.6934 10.6533 16.5267 10.6467 15.2001 11.98C13.8734 13.3133 13.8667 15.48 15.2001 16.8067C15.3934 17 15.3934 17.3067 15.2001 17.4933C15.0067 17.6867 14.7001 17.6867 14.5134 17.4933C12.8001 15.78 12.8001 12.9933 14.5134 11.2867C16.2267 9.58 19.0134 9.57333 20.7201 11.2867C22.4267 13 22.4267 15.78 20.7134 17.4933Z" fill="white"/>
<path d="M11.2867 14.5067C11.48 14.3133 11.7867 14.3133 11.9734 14.5067C12.1667 14.7 12.1667 15.0067 11.9734 15.1933C10.64 16.5267 10.64 18.6933 11.9734 20.02C13.3067 21.3467 15.4734 21.3533 16.8 20.02C18.1267 18.6867 18.1334 16.52 16.8 15.1933C16.6067 15 16.6067 14.6933 16.8 14.5067C16.9934 14.3133 17.3 14.3133 17.4867 14.5067C19.2 16.22 19.2 19.0067 17.4867 20.7133C15.7734 22.42 12.9867 22.4267 11.28 20.7133C9.57336 19 9.57336 16.22 11.2867 14.5067Z" fill="white"/>
</svg>
