<svg width="32" height="32" viewBox="0 0 32 32" fill="none" xmlns="http://www.w3.org/2000/svg">
<path d="M0 16C0 7.16344 7.16344 0 16 0C24.8366 0 32 7.16344 32 16C32 24.8366 24.8366 32 16 32C7.16344 32 0 24.8366 0 16Z" fill="#FFCB00"/>
<path d="M19.3334 10.3333H12.6667C10.6667 10.3333 9.33337 11.3333 9.33337 13.6667V18.3333C9.33337 20.6667 10.6667 21.6667 12.6667 21.6667H19.3334C21.3334 21.6667 22.6667 20.6667 22.6667 18.3333V13.6667C22.6667 11.3333 21.3334 10.3333 19.3334 10.3333ZM12.1667 17.6667C12.1667 17.94 11.94 18.1667 11.6667 18.1667C11.3934 18.1667 11.1667 17.94 11.1667 17.6667V14.3333C11.1667 14.06 11.3934 13.8333 11.6667 13.8333C11.94 13.8333 12.1667 14.06 12.1667 14.3333V17.6667ZM16 18C14.8934 18 14 17.1067 14 16C14 14.8933 14.8934 14 16 14C17.1067 14 18 14.8933 18 16C18 17.1067 17.1067 18 16 18ZM20.8334 17.6667C20.8334 17.94 20.6067 18.1667 20.3334 18.1667C20.06 18.1667 19.8334 17.94 19.8334 17.6667V14.3333C19.8334 14.06 20.06 13.8333 20.3334 13.8333C20.6067 13.8333 20.8334 14.06 20.8334 14.3333V17.6667Z" fill="white"/>
</svg>
