<svg width="32" height="33" viewBox="0 0 32 33" fill="none" xmlns="http://www.w3.org/2000/svg">
<circle cx="16.3227" cy="16.823" r="15.363" fill="#F8FAFC"/>
<rect width="23.0445" height="23.0445" transform="translate(12.9138 0.5) rotate(34.0825)" fill="#F8FAFC"/>
<path d="M20.3045 10.1379L20.2098 9.64699L20.7008 9.55229L20.7955 10.0432L20.3045 10.1379ZM12.6475 22.347C12.4927 22.5757 12.1819 22.6357 11.9532 22.4809C11.7245 22.3262 11.6645 22.0153 11.8192 21.7866L12.6475 22.347ZM12.2098 11.1901L20.2098 9.64699L20.3992 10.6289L12.3992 12.172L12.2098 11.1901ZM20.7955 10.0432L22.3385 18.0432L21.3566 18.2326L19.8136 10.2326L20.7955 10.0432ZM20.7186 10.4181L12.6475 22.347L11.8192 21.7866L19.8904 9.85775L20.7186 10.4181Z" fill="#16A34A"/>
</svg>
