<svg width="16" height="17" viewBox="0 0 16 17" fill="none" xmlns="http://www.w3.org/2000/svg">
<path d="M3.33337 7.20763H4.66671C6.00004 7.20763 6.66671 6.54096 6.66671 5.20763V3.8743C6.66671 2.54096 6.00004 1.8743 4.66671 1.8743H3.33337C2.00004 1.8743 1.33337 2.54096 1.33337 3.8743V5.20763C1.33337 6.54096 2.00004 7.20763 3.33337 7.20763Z" stroke="white" stroke-width="1.5" stroke-miterlimit="10" stroke-linecap="round" stroke-linejoin="round"/>
<path d="M11.3334 7.20763H12.6667C14 7.20763 14.6667 6.54096 14.6667 5.20763V3.8743C14.6667 2.54096 14 1.8743 12.6667 1.8743H11.3334C10 1.8743 9.33337 2.54096 9.33337 3.8743V5.20763C9.33337 6.54096 10 7.20763 11.3334 7.20763Z" stroke="white" stroke-width="1.5" stroke-miterlimit="10" stroke-linecap="round" stroke-linejoin="round"/>
<path d="M11.3334 15.2076H12.6667C14 15.2076 14.6667 14.541 14.6667 13.2076V11.8743C14.6667 10.541 14 9.8743 12.6667 9.8743H11.3334C10 9.8743 9.33337 10.541 9.33337 11.8743V13.2076C9.33337 14.541 10 15.2076 11.3334 15.2076Z" stroke="white" stroke-width="1.5" stroke-miterlimit="10" stroke-linecap="round" stroke-linejoin="round"/>
<path d="M3.33337 15.2076H4.66671C6.00004 15.2076 6.66671 14.541 6.66671 13.2076V11.8743C6.66671 10.541 6.00004 9.8743 4.66671 9.8743H3.33337C2.00004 9.8743 1.33337 10.541 1.33337 11.8743V13.2076C1.33337 14.541 2.00004 15.2076 3.33337 15.2076Z" stroke="white" stroke-width="1.5" stroke-miterlimit="10" stroke-linecap="round" stroke-linejoin="round"/>
</svg>
