<svg width="32" height="33" viewBox="0 0 32 33" fill="none" xmlns="http://www.w3.org/2000/svg">
<rect y="0.540955" width="32" height="32" rx="8" fill="white"/>
<path d="M11.8267 19.2076C11.9 18.881 11.7667 18.4143 11.5333 18.181L9.91333 16.561C9.40667 16.0543 9.20667 15.5143 9.35333 15.0476C9.50667 14.581 9.98 14.261 10.6867 14.141L12.7667 13.7943C13.0667 13.741 13.4333 13.4743 13.5733 13.201L14.72 10.901C15.0533 10.241 15.5067 9.8743 16 9.8743C16.4933 9.8743 16.9467 10.241 17.28 10.901L18.4267 13.201C18.5133 13.3743 18.6933 13.541 18.8867 13.6543L11.7067 20.8343C11.6133 20.9276 11.4533 20.841 11.48 20.7076L11.8267 19.2076Z" fill="#F59E0B"/>
<path d="M20.4667 18.181C20.2267 18.421 20.0933 18.881 20.1733 19.2076L20.6333 21.2143C20.8267 22.0476 20.7067 22.6743 20.2933 22.9743C20.1267 23.0943 19.9267 23.1543 19.6933 23.1543C19.3533 23.1543 18.9533 23.0276 18.5133 22.7676L16.56 21.6076C16.2533 21.4276 15.7467 21.4276 15.44 21.6076L13.4867 22.7676C12.7467 23.201 12.1133 23.2743 11.7067 22.9743C11.5533 22.861 11.44 22.7076 11.3667 22.5076L19.4733 14.401C19.78 14.0943 20.2133 13.9543 20.6333 14.0276L21.3067 14.141C22.0133 14.261 22.4867 14.581 22.64 15.0476C22.7867 15.5143 22.5867 16.0543 22.08 16.561L20.4667 18.181Z" fill="#F59E0B"/>
</svg>
