<svg width="32" height="32" viewBox="0 0 32 32" fill="none" xmlns="http://www.w3.org/2000/svg">
<path d="M0 16C0 7.16344 7.16344 0 16 0C24.8366 0 32 7.16344 32 16C32 24.8366 24.8366 32 16 32C7.16344 32 0 24.8366 0 16Z" fill="#9333EA"/>
<path d="M22.6666 15.1667C22.94 15.1667 23.1666 14.94 23.1666 14.6667V14C23.1666 11.06 22.2733 10.1667 19.3333 10.1667H15.1666V11.6667C15.1666 11.94 14.94 12.1667 14.6666 12.1667C14.3933 12.1667 14.1666 11.94 14.1666 11.6667V10.1667H12.6666C9.72665 10.1667 8.83331 11.06 8.83331 14V14.3333C8.83331 14.6067 9.05998 14.8333 9.33331 14.8333C9.97331 14.8333 10.5 15.36 10.5 16C10.5 16.64 9.97331 17.1667 9.33331 17.1667C9.05998 17.1667 8.83331 17.3933 8.83331 17.6667V18C8.83331 20.94 9.72665 21.8333 12.6666 21.8333H14.1666V20.3333C14.1666 20.06 14.3933 19.8333 14.6666 19.8333C14.94 19.8333 15.1666 20.06 15.1666 20.3333V21.8333H19.3333C22.2733 21.8333 23.1666 20.94 23.1666 18C23.1666 17.7267 22.94 17.5 22.6666 17.5C22.0266 17.5 21.5 16.9733 21.5 16.3333C21.5 15.6933 22.0266 15.1667 22.6666 15.1667ZM15.1666 17.4467C15.1666 17.72 14.94 17.9467 14.6666 17.9467C14.3933 17.9467 14.1666 17.72 14.1666 17.4467V14.5533C14.1666 14.28 14.3933 14.0533 14.6666 14.0533C14.94 14.0533 15.1666 14.28 15.1666 14.5533V17.4467Z" fill="white"/>
</svg>
