<svg width="32" height="33" viewBox="0 0 32 33" fill="none" xmlns="http://www.w3.org/2000/svg">
<rect y="0.540955" width="32" height="32" rx="8" fill="white"/>
<rect width="16" height="16" transform="translate(8 8.54095)" fill="white"/>
<path d="M21.3333 12.2076C21.8856 12.2076 22.3333 11.7599 22.3333 11.2076C22.3333 10.6553 21.8856 10.2076 21.3333 10.2076V12.2076ZM11.6667 12.2076L21.3333 12.2076V10.2076L11.6667 10.2076V12.2076ZM11.6667 15.541L17 15.541V13.541L11.6667 13.541V15.541ZM11 12.8743C11 12.5061 11.2985 12.2076 11.6667 12.2076V10.2076C10.1939 10.2076 9 11.4015 9 12.8743H11ZM9 12.8743C9 14.347 10.1939 15.541 11.6667 15.541V13.541C11.2985 13.541 11 13.2425 11 12.8743H9Z" fill="#14B8A6"/>
<path d="M11 16.541V12.8743H9V16.541H11Z" fill="#14B8A6"/>
<path d="M22.5 20.541V20.041H22H20C19.1716 20.041 18.5 19.3694 18.5 18.541C18.5 17.7125 19.1716 17.041 20 17.041H22H22.5V16.541L22.5 16.508C22.5 16.0648 22.5 15.6829 22.4589 15.3771C22.4149 15.0493 22.3155 14.7351 22.0607 14.4803C21.8058 14.2255 21.4917 14.1261 21.1639 14.082C20.8581 14.0409 20.4762 14.0409 20.0329 14.041L20 14.041L10 14.041H9.5V14.541L9.5 20.541L9.5 20.5739C9.49997 21.0171 9.49995 21.399 9.54107 21.7049C9.58514 22.0326 9.68451 22.3468 9.93934 22.6016L10.2929 22.2481L9.93934 22.6016C10.1942 22.8564 10.5083 22.9558 10.8361 22.9999C11.1419 23.041 11.5238 23.041 11.9671 23.041L12 23.041H20C20.011 23.041 20.022 23.041 20.0329 23.041C20.4762 23.041 20.8581 23.041 21.1639 22.9999C21.4917 22.9558 21.8058 22.8564 22.0607 22.6016C22.3155 22.3468 22.4149 22.0326 22.4589 21.7049C22.5 21.399 22.5 21.0171 22.5 20.5739C22.5 20.5629 22.5 20.552 22.5 20.541Z" fill="#14B8A6" stroke="#14B8A6"/>
</svg>
