<svg width="32" height="32" viewBox="0 0 32 32" fill="none" xmlns="http://www.w3.org/2000/svg">
<path d="M0 16C0 7.16344 7.16344 0 16 0V0C24.8366 0 32 7.16344 32 16V16C32 24.8366 24.8366 32 16 32V32C7.16344 32 0 24.8366 0 16V16Z" fill="#F97316"/>
<path d="M22.6667 15.3133V16.6867C22.6667 17.0533 22.3733 17.3533 22 17.3667H20.6933C19.9733 17.3667 19.3133 16.84 19.2533 16.12C19.2133 15.7 19.3733 15.3067 19.6533 15.0333C19.9 14.78 20.24 14.6333 20.6133 14.6333H22C22.3733 14.6467 22.6667 14.9467 22.6667 15.3133Z" fill="white"/>
<path d="M21.6467 18.3667H20.6933C19.4267 18.3667 18.36 17.4133 18.2533 16.2C18.1933 15.5067 18.4467 14.8133 18.9533 14.32C19.38 13.88 19.9733 13.6333 20.6133 13.6333H21.6467C21.84 13.6333 22 13.4733 21.98 13.28C21.8333 11.66 20.76 10.5533 19.1667 10.3667C19.0067 10.34 18.84 10.3333 18.6667 10.3333H12.6667C12.48 10.3333 12.3 10.3467 12.1267 10.3733C10.4267 10.5867 9.33334 11.8533 9.33334 13.6667V18.3333C9.33334 20.1733 10.8267 21.6667 12.6667 21.6667H18.6667C20.5333 21.6667 21.82 20.5 21.98 18.72C22 18.5267 21.84 18.3667 21.6467 18.3667ZM16.6667 14.5H12.6667C12.3933 14.5 12.1667 14.2733 12.1667 14C12.1667 13.7267 12.3933 13.5 12.6667 13.5H16.6667C16.94 13.5 17.1667 13.7267 17.1667 14C17.1667 14.2733 16.94 14.5 16.6667 14.5Z" fill="white"/>
</svg>
