<svg width="24" height="25" viewBox="0 0 24 25" fill="none" xmlns="http://www.w3.org/2000/svg">
<path d="M22 11.011V13.071C22 13.621 21.56 14.071 21 14.091H19.04C17.96 14.091 16.97 13.301 16.88 12.221C16.82 11.591 17.06 11.001 17.48 10.591C17.85 10.211 18.36 9.99095 18.92 9.99095H21C21.56 10.011 22 10.461 22 11.011Z" fill="#017189"/>
<path d="M20.47 15.591H19.04C17.14 15.591 15.54 14.161 15.38 12.341C15.29 11.301 15.67 10.261 16.43 9.52095C17.07 8.86095 17.96 8.49095 18.92 8.49095H20.47C20.76 8.49095 21 8.25095 20.97 7.96095C20.75 5.53095 19.14 3.87095 16.75 3.59095C16.51 3.55095 16.26 3.54095 16 3.54095H7C6.72 3.54095 6.45 3.56095 6.19 3.60095C3.64 3.92095 2 5.82095 2 8.54095V15.541C2 18.301 4.24 20.541 7 20.541H16C18.8 20.541 20.73 18.791 20.97 16.121C21 15.831 20.76 15.591 20.47 15.591ZM13 9.79095H7C6.59 9.79095 6.25 9.45095 6.25 9.04095C6.25 8.63095 6.59 8.29095 7 8.29095H13C13.41 8.29095 13.75 8.63095 13.75 9.04095C13.75 9.45095 13.41 9.79095 13 9.79095Z" fill="#017189"/>
</svg>
